# xmcd CD database file
# Copyright (C) 1997 Ti Kan
# 
# Track frame offsets:
#     150
#     11005
#     23425
#     37212
#     47272
#     59617
#     71157
#     81050
#     91880
#     102437
#     113962
#     126855
#     138202
#     148670
#     162102
#     174895
#     187177
#     197417
#     208525
#     219475
# 
# Disc length: 3070 seconds
# 
# Revision: 1
# Processed by: cddbd v1.4b41PL1 Copyright (c) Steve Scherf et al.
# Submitted via: DiscPlay 4.0.3
# 
DISCID=170bfc14
DTITLE=Willie Nelson - The Legend Begins
DYEAR=1900
DGENRE=
TTITLE0=Hello Walls
TTITLE1=Mr. Record Man
TTITLE2=Funny How Time Slips Away
TTITLE3=Touch Me
TTITLE4=Country Willie
TTITLE5=Take Me As I am (or let me go)
TTITLE6=Right or Wrong
TTITLE7=I'll Walk Alone
TTITLE8=Where My House Lives
TTITLE9=Seasons of My Heart
TTITLE10=Crazy
TTITLE11=Night Life
TTITLE12=The Part Where I Cry
TTITLE13=Three Days
TTITLE14=Am I Blue
TTITLE15=Willingly (with Shirley Collie)
TTITLE16=There'll be no Teardrops Tonight
TTITLE17=Half a Man
TTITLE18=Home Motel
TTITLE19=One Step Beyond
EXTD=
EXTT0=
EXTT1=
EXTT2=
EXTT3=
EXTT4=
EXTT5=
EXTT6=
EXTT7=
EXTT8=
EXTT9=
EXTT10=
EXTT11=
EXTT12=
EXTT13=
EXTT14=
EXTT15=
EXTT16=
EXTT17=
EXTT18=
EXTT19=
PLAYORDER=
